# xmcd
#
# Track frame offsets: 
#        150
#        10010
#        24266
#        35660
#        47400
#        63745
#        77147
#        91022
#        100907
#        114611
#        126687
#        139214
#        156570
#        175428
#        190311
#        204332
#        217625
#        231482
#        240216
#        252982
#        264674
#        273876
#        287387
#        301269
#        315404
#
# Disc length: 4428 seconds
#
# Revision: 1
# Processed by: cddbd v1.5.2PL0 Copyright (c) Steve Scherf et al.
# Submitted via: ExactAudioCopy v1.0b3
#
DISCID=59114a19
DTITLE=Various Artist - Café St. Tropez
DYEAR=2006
DGENRE=Chanson
TTITLE0=Édith Piaf - Johnny tu n'es pas un ange
TTITLE1=Gilbert Bécaud - La ballade des baladine
TTITLE2=Luis Mariano - C'est magnifique
TTITLE3=Tino Rossi - Tango bleu
TTITLE4=Léo Ferré - Monsieur William
TTITLE5=Jacques Brel - La Bastille
TTITLE6=Georges Brassens - La priere
TTITLE7=Patachou - Georges Brassens - Maman, Papa
TTITLE8=Henri Salvador - Quand je monte chez toi
TTITLE9=Darío Moreno - C'est l'amore
TTITLE10=Charles Trenet - Je chante
TTITLE11=Lucienne Delyle - Luna rossa
TTITLE12=Bourvil - Les crayons
TTITLE13=Les Compagnons de la chanson - Mes jeunes annees
TTITLE14=Léo Ferré - L'Île Saint-Louis
TTITLE15=Édith Piaf - La Foule
TTITLE16=Charles Aznavour - Sur ma vie
TTITLE17=Gilbert Bécaud - Moi je sais
TTITLE18=Yvette Giraud - Un homme est un homme
TTITLE19=Line Renaud - Tweedle dee
TTITLE20=Catherine Sauvage - Les Amoureux du Havre
TTITLE21=Marcel Mouloudji - Mon pot' le gitan
TTITLE22=Yves Montand - Du soleil plein la tete
TTITLE23=Yvette Giraud - Avril au Portugal
TTITLE24=Mouloudji - Comme un p’tit coquelicot
EXTD=
EXTT0=
EXTT1=
EXTT2=
EXTT3=
EXTT4=
EXTT5=
EXTT6=
EXTT7=
EXTT8=
EXTT9=
EXTT10=
EXTT11=
EXTT12=
EXTT13=
EXTT14=
EXTT15=
EXTT16=
EXTT17=
EXTT18=
EXTT19=
EXTT20=
EXTT21=
EXTT22=
EXTT23=
EXTT24=
PLAYORDER=
